<mxfile host="app.diagrams.net" modified="2022-05-29T17:42:39.276Z" agent="5.0 (Windows NT 10.0; Win64; x64) AppleWebKit/537.36 (KHTML, like Gecko) Chrome/101.0.0.0 Safari/537.36" etag="-nTqURLZ1Gg1LZCg7GRU" version="18.1.3" type="github">
  <diagram name="Page-1" id="0783ab3e-0a74-02c8-0abd-f7b4e66b4bec">
    <mxGraphModel dx="1778" dy="943" grid="1" gridSize="10" guides="1" tooltips="1" connect="1" arrows="1" fold="1" page="1" pageScale="1" pageWidth="850" pageHeight="1100" background="none" math="0" shadow="0">
      <root>
        <mxCell id="0" />
        <mxCell id="1" parent="0" />
        <mxCell id="1c1d494c118603dd-1" value="Pool" style="swimlane;html=1;childLayout=stackLayout;startSize=20;rounded=0;shadow=0;comic=0;labelBackgroundColor=none;strokeWidth=1;fontFamily=Verdana;fontSize=12;align=center;" parent="1" vertex="1">
          <mxGeometry x="40" y="20" width="1100" height="990" as="geometry" />
        </mxCell>
        <mxCell id="1c1d494c118603dd-2" value="Система" style="swimlane;html=1;startSize=20;" parent="1c1d494c118603dd-1" vertex="1">
          <mxGeometry y="20" width="350" height="970" as="geometry" />
        </mxCell>
        <mxCell id="60571a20871a0731-8" value="регистрация заявки" style="rounded=1;whiteSpace=wrap;html=1;shadow=0;comic=0;labelBackgroundColor=none;strokeWidth=1;fontFamily=Verdana;fontSize=12;align=center;arcSize=50;" parent="1c1d494c118603dd-2" vertex="1">
          <mxGeometry x="70" y="110" width="100" height="30" as="geometry" />
        </mxCell>
        <mxCell id="FWC8OJQm8FXM-NBjVPUl-43" value="подтверждение" style="rounded=1;whiteSpace=wrap;html=1;shadow=0;comic=0;labelBackgroundColor=none;strokeWidth=1;fontFamily=Verdana;fontSize=12;align=center;arcSize=50;" vertex="1" parent="1c1d494c118603dd-2">
          <mxGeometry x="70" y="220" width="100" height="30" as="geometry" />
        </mxCell>
        <mxCell id="FWC8OJQm8FXM-NBjVPUl-56" value="" style="edgeStyle=orthogonalEdgeStyle;rounded=0;orthogonalLoop=1;jettySize=auto;html=1;" edge="1" parent="1c1d494c118603dd-2" source="FWC8OJQm8FXM-NBjVPUl-52" target="FWC8OJQm8FXM-NBjVPUl-55">
          <mxGeometry relative="1" as="geometry" />
        </mxCell>
        <mxCell id="FWC8OJQm8FXM-NBjVPUl-52" value="Подтверждение оплаты" style="ellipse;whiteSpace=wrap;html=1;" vertex="1" parent="1c1d494c118603dd-2">
          <mxGeometry x="80" y="330" width="140" height="60" as="geometry" />
        </mxCell>
        <mxCell id="FWC8OJQm8FXM-NBjVPUl-55" value="Заказ оплачен" style="whiteSpace=wrap;html=1;" vertex="1" parent="1c1d494c118603dd-2">
          <mxGeometry x="90" y="620" width="120" height="60" as="geometry" />
        </mxCell>
        <mxCell id="1c1d494c118603dd-3" value="Клиент" style="swimlane;html=1;startSize=20;" parent="1c1d494c118603dd-1" vertex="1">
          <mxGeometry x="350" y="20" width="250" height="970" as="geometry" />
        </mxCell>
        <mxCell id="60571a20871a0731-4" value="" style="ellipse;whiteSpace=wrap;html=1;rounded=0;shadow=0;comic=0;labelBackgroundColor=none;strokeWidth=1;fillColor=#000000;fontFamily=Verdana;fontSize=12;align=center;" parent="1c1d494c118603dd-3" vertex="1">
          <mxGeometry x="100" y="50" width="40" height="40" as="geometry" />
        </mxCell>
        <mxCell id="FWC8OJQm8FXM-NBjVPUl-54" style="edgeStyle=orthogonalEdgeStyle;rounded=0;orthogonalLoop=1;jettySize=auto;html=1;exitX=1;exitY=0.75;exitDx=0;exitDy=0;entryX=1;entryY=0.5;entryDx=0;entryDy=0;" edge="1" parent="1c1d494c118603dd-3" source="FWC8OJQm8FXM-NBjVPUl-51" target="60571a20871a0731-4">
          <mxGeometry relative="1" as="geometry">
            <Array as="points">
              <mxPoint x="185" y="360" />
              <mxPoint x="205" y="360" />
              <mxPoint x="205" y="70" />
            </Array>
          </mxGeometry>
        </mxCell>
        <mxCell id="FWC8OJQm8FXM-NBjVPUl-51" value="Оплата заказа" style="shape=process;whiteSpace=wrap;html=1;backgroundOutline=1;" vertex="1" parent="1c1d494c118603dd-3">
          <mxGeometry x="65" y="330" width="120" height="60" as="geometry" />
        </mxCell>
        <mxCell id="1c1d494c118603dd-4" value="Оператор" style="swimlane;html=1;startSize=20;" parent="1c1d494c118603dd-1" vertex="1">
          <mxGeometry x="600" y="20" width="250" height="970" as="geometry" />
        </mxCell>
        <mxCell id="60571a20871a0731-3" value="" style="whiteSpace=wrap;html=1;rounded=0;shadow=0;comic=0;labelBackgroundColor=none;strokeWidth=1;fillColor=#000000;fontFamily=Verdana;fontSize=12;align=center;rotation=0;" parent="1c1d494c118603dd-4" vertex="1">
          <mxGeometry x="51.5" y="160" width="147" height="10" as="geometry" />
        </mxCell>
        <mxCell id="FWC8OJQm8FXM-NBjVPUl-31" value="Обработка пула заказов" style="text;html=1;strokeColor=none;fillColor=none;align=center;verticalAlign=middle;whiteSpace=wrap;rounded=0;" vertex="1" parent="1c1d494c118603dd-4">
          <mxGeometry x="130" y="130" width="101.5" height="30" as="geometry" />
        </mxCell>
        <mxCell id="FWC8OJQm8FXM-NBjVPUl-32" value="выполнение" style="rounded=1;whiteSpace=wrap;html=1;shadow=0;comic=0;labelBackgroundColor=none;strokeWidth=1;fontFamily=Verdana;fontSize=12;align=center;arcSize=50;" vertex="1" parent="1c1d494c118603dd-4">
          <mxGeometry x="75" y="210" width="100" height="30" as="geometry" />
        </mxCell>
        <mxCell id="FWC8OJQm8FXM-NBjVPUl-36" style="edgeStyle=orthogonalEdgeStyle;rounded=0;html=1;labelBackgroundColor=none;startArrow=none;startFill=0;startSize=5;endArrow=classicThin;endFill=1;endSize=5;jettySize=auto;orthogonalLoop=1;strokeWidth=1;fontFamily=Verdana;fontSize=12;exitX=0.5;exitY=1;exitDx=0;exitDy=0;entryX=0.5;entryY=0;entryDx=0;entryDy=0;" edge="1" parent="1c1d494c118603dd-4" source="60571a20871a0731-3" target="FWC8OJQm8FXM-NBjVPUl-32">
          <mxGeometry relative="1" as="geometry">
            <mxPoint x="-130" y="90" as="sourcePoint" />
            <mxPoint x="-460" y="130" as="targetPoint" />
          </mxGeometry>
        </mxCell>
        <mxCell id="FWC8OJQm8FXM-NBjVPUl-58" value="" style="whiteSpace=wrap;html=1;rounded=0;shadow=0;comic=0;labelBackgroundColor=none;strokeWidth=1;fillColor=#000000;fontFamily=Verdana;fontSize=12;align=center;rotation=0;" vertex="1" parent="1c1d494c118603dd-4">
          <mxGeometry x="51.5" y="540" width="158.5" height="10" as="geometry" />
        </mxCell>
        <mxCell id="FWC8OJQm8FXM-NBjVPUl-60" value="item: заявка системы&#xa; выполнена" style="label;fontStyle=0;strokeColor=none;fillColor=none;align=left;verticalAlign=top;overflow=hidden;spacingLeft=28;spacingRight=4;rotatable=0;points=[[0,0.5],[1,0.5]];portConstraint=eastwest;imageWidth=16;imageHeight=16;image=img/clipart/Gear_128x128.png" vertex="1" parent="1c1d494c118603dd-4">
          <mxGeometry x="51.5" y="570" width="155" height="26" as="geometry" />
        </mxCell>
        <mxCell id="FWC8OJQm8FXM-NBjVPUl-1" value="Водитель" style="swimlane;html=1;startSize=20;" vertex="1" parent="1c1d494c118603dd-1">
          <mxGeometry x="850" y="20" width="250" height="970" as="geometry" />
        </mxCell>
        <mxCell id="FWC8OJQm8FXM-NBjVPUl-40" value="Подтверждение" style="ellipse;whiteSpace=wrap;html=1;fontFamily=Verdana;rounded=1;shadow=0;comic=0;labelBackgroundColor=none;strokeWidth=1;arcSize=50;" vertex="1" parent="FWC8OJQm8FXM-NBjVPUl-1">
          <mxGeometry x="65" y="90" width="120" height="60" as="geometry" />
        </mxCell>
        <mxCell id="FWC8OJQm8FXM-NBjVPUl-49" value="" style="edgeStyle=orthogonalEdgeStyle;rounded=0;orthogonalLoop=1;jettySize=auto;html=1;" edge="1" parent="FWC8OJQm8FXM-NBjVPUl-1" source="FWC8OJQm8FXM-NBjVPUl-47" target="FWC8OJQm8FXM-NBjVPUl-48">
          <mxGeometry relative="1" as="geometry" />
        </mxCell>
        <mxCell id="FWC8OJQm8FXM-NBjVPUl-47" value="" style="whiteSpace=wrap;html=1;rounded=0;shadow=0;comic=0;labelBackgroundColor=none;strokeWidth=1;fillColor=#000000;fontFamily=Verdana;fontSize=12;align=center;rotation=0;" vertex="1" parent="FWC8OJQm8FXM-NBjVPUl-1">
          <mxGeometry x="51.5" y="330" width="147" height="10" as="geometry" />
        </mxCell>
        <mxCell id="FWC8OJQm8FXM-NBjVPUl-48" value="Выполнение заказа" style="whiteSpace=wrap;html=1;fontFamily=Verdana;rounded=0;shadow=0;comic=0;labelBackgroundColor=none;strokeWidth=1;" vertex="1" parent="FWC8OJQm8FXM-NBjVPUl-1">
          <mxGeometry x="65" y="370" width="120" height="60" as="geometry" />
        </mxCell>
        <mxCell id="FWC8OJQm8FXM-NBjVPUl-59" value="" style="whiteSpace=wrap;html=1;rounded=0;shadow=0;comic=0;labelBackgroundColor=none;strokeWidth=1;fillColor=#000000;fontFamily=Verdana;fontSize=12;align=center;rotation=0;" vertex="1" parent="FWC8OJQm8FXM-NBjVPUl-1">
          <mxGeometry x="60" y="540" width="147" height="10" as="geometry" />
        </mxCell>
        <mxCell id="FWC8OJQm8FXM-NBjVPUl-63" value="Выполнено" style="text;html=1;strokeColor=none;fillColor=none;align=center;verticalAlign=middle;whiteSpace=wrap;rounded=0;" vertex="1" parent="FWC8OJQm8FXM-NBjVPUl-1">
          <mxGeometry x="104" y="560" width="60" height="30" as="geometry" />
        </mxCell>
        <mxCell id="1c1d494c118603dd-27" style="edgeStyle=orthogonalEdgeStyle;rounded=0;html=1;labelBackgroundColor=none;startArrow=none;startFill=0;startSize=5;endArrow=classicThin;endFill=1;endSize=5;jettySize=auto;orthogonalLoop=1;strokeWidth=1;fontFamily=Verdana;fontSize=12" parent="1c1d494c118603dd-1" source="60571a20871a0731-4" target="60571a20871a0731-8" edge="1">
          <mxGeometry relative="1" as="geometry" />
        </mxCell>
        <mxCell id="FWC8OJQm8FXM-NBjVPUl-35" style="edgeStyle=orthogonalEdgeStyle;rounded=0;html=1;labelBackgroundColor=none;startArrow=none;startFill=0;startSize=5;endArrow=classicThin;endFill=1;endSize=5;jettySize=auto;orthogonalLoop=1;strokeWidth=1;fontFamily=Verdana;fontSize=12;entryX=0.5;entryY=0;entryDx=0;entryDy=0;" edge="1" parent="1c1d494c118603dd-1" target="60571a20871a0731-3">
          <mxGeometry relative="1" as="geometry">
            <mxPoint x="170" y="150" as="sourcePoint" />
            <mxPoint x="130" y="140" as="targetPoint" />
          </mxGeometry>
        </mxCell>
        <mxCell id="FWC8OJQm8FXM-NBjVPUl-41" value="" style="edgeStyle=orthogonalEdgeStyle;rounded=0;orthogonalLoop=1;jettySize=auto;html=1;" edge="1" parent="1c1d494c118603dd-1" source="FWC8OJQm8FXM-NBjVPUl-32" target="FWC8OJQm8FXM-NBjVPUl-40">
          <mxGeometry relative="1" as="geometry" />
        </mxCell>
        <mxCell id="FWC8OJQm8FXM-NBjVPUl-42" value="" style="edgeStyle=orthogonalEdgeStyle;rounded=0;orthogonalLoop=1;jettySize=auto;html=1;" edge="1" parent="1c1d494c118603dd-1" source="FWC8OJQm8FXM-NBjVPUl-40" target="FWC8OJQm8FXM-NBjVPUl-43">
          <mxGeometry relative="1" as="geometry">
            <mxPoint x="330" y="130" as="targetPoint" />
            <Array as="points">
              <mxPoint x="1070" y="140" />
              <mxPoint x="1070" y="300" />
              <mxPoint x="120" y="300" />
            </Array>
          </mxGeometry>
        </mxCell>
        <mxCell id="FWC8OJQm8FXM-NBjVPUl-45" value="" style="edgeStyle=orthogonalEdgeStyle;rounded=0;orthogonalLoop=1;jettySize=auto;html=1;entryX=0.5;entryY=1;entryDx=0;entryDy=0;exitX=1;exitY=0.5;exitDx=0;exitDy=0;" edge="1" parent="1c1d494c118603dd-1" source="FWC8OJQm8FXM-NBjVPUl-43" target="60571a20871a0731-4">
          <mxGeometry relative="1" as="geometry">
            <mxPoint x="1045" y="150" as="sourcePoint" />
            <mxPoint x="130" y="280" as="targetPoint" />
            <Array as="points">
              <mxPoint x="170" y="250" />
              <mxPoint x="470" y="250" />
            </Array>
          </mxGeometry>
        </mxCell>
        <mxCell id="FWC8OJQm8FXM-NBjVPUl-46" value="Уведомление&amp;nbsp;" style="edgeLabel;html=1;align=center;verticalAlign=middle;resizable=0;points=[];" vertex="1" connectable="0" parent="FWC8OJQm8FXM-NBjVPUl-45">
          <mxGeometry x="-0.0697" y="-3" relative="1" as="geometry">
            <mxPoint as="offset" />
          </mxGeometry>
        </mxCell>
        <mxCell id="FWC8OJQm8FXM-NBjVPUl-50" value="dispatch" style="html=1;verticalAlign=bottom;endArrow=block;rounded=0;exitX=0.5;exitY=1;exitDx=0;exitDy=0;entryX=1;entryY=1;entryDx=0;entryDy=0;" edge="1" parent="1c1d494c118603dd-1" source="FWC8OJQm8FXM-NBjVPUl-48" target="60571a20871a0731-4">
          <mxGeometry width="80" relative="1" as="geometry">
            <mxPoint x="730" y="520" as="sourcePoint" />
            <mxPoint x="810" y="520" as="targetPoint" />
            <Array as="points">
              <mxPoint x="975" y="470" />
              <mxPoint x="1110" y="470" />
              <mxPoint x="1110" y="100" />
            </Array>
          </mxGeometry>
        </mxCell>
        <mxCell id="FWC8OJQm8FXM-NBjVPUl-53" style="edgeStyle=orthogonalEdgeStyle;rounded=0;orthogonalLoop=1;jettySize=auto;html=1;entryX=1;entryY=0.5;entryDx=0;entryDy=0;" edge="1" parent="1c1d494c118603dd-1" source="FWC8OJQm8FXM-NBjVPUl-51" target="FWC8OJQm8FXM-NBjVPUl-52">
          <mxGeometry relative="1" as="geometry" />
        </mxCell>
        <mxCell id="FWC8OJQm8FXM-NBjVPUl-61" style="edgeStyle=orthogonalEdgeStyle;rounded=0;orthogonalLoop=1;jettySize=auto;html=1;entryX=0.5;entryY=1;entryDx=0;entryDy=0;" edge="1" parent="1c1d494c118603dd-1" source="FWC8OJQm8FXM-NBjVPUl-55" target="FWC8OJQm8FXM-NBjVPUl-58">
          <mxGeometry relative="1" as="geometry" />
        </mxCell>
        <mxCell id="FWC8OJQm8FXM-NBjVPUl-62" style="edgeStyle=orthogonalEdgeStyle;rounded=0;orthogonalLoop=1;jettySize=auto;html=1;entryX=0.5;entryY=0;entryDx=0;entryDy=0;" edge="1" parent="1c1d494c118603dd-1" source="FWC8OJQm8FXM-NBjVPUl-51" target="FWC8OJQm8FXM-NBjVPUl-59">
          <mxGeometry relative="1" as="geometry">
            <Array as="points">
              <mxPoint x="475" y="490" />
              <mxPoint x="983" y="490" />
            </Array>
          </mxGeometry>
        </mxCell>
        <mxCell id="FWC8OJQm8FXM-NBjVPUl-38" style="edgeStyle=orthogonalEdgeStyle;rounded=0;html=1;labelBackgroundColor=none;startArrow=none;startFill=0;startSize=5;endArrow=classicThin;endFill=1;endSize=5;jettySize=auto;orthogonalLoop=1;strokeWidth=1;fontFamily=Verdana;fontSize=12;exitX=1;exitY=0.5;exitDx=0;exitDy=0;" edge="1" parent="1" source="FWC8OJQm8FXM-NBjVPUl-32">
          <mxGeometry relative="1" as="geometry">
            <mxPoint x="775" y="220" as="sourcePoint" />
            <mxPoint x="1000" y="265" as="targetPoint" />
          </mxGeometry>
        </mxCell>
        <mxCell id="FWC8OJQm8FXM-NBjVPUl-39" value="Поиск машины" style="edgeLabel;html=1;align=center;verticalAlign=middle;resizable=0;points=[];" vertex="1" connectable="0" parent="FWC8OJQm8FXM-NBjVPUl-38">
          <mxGeometry x="-0.2649" y="-3" relative="1" as="geometry">
            <mxPoint as="offset" />
          </mxGeometry>
        </mxCell>
      </root>
    </mxGraphModel>
  </diagram>
</mxfile>
